<?xml version="1.0" encoding="UTF-8" standalone="no"?>
<!-- Created with sK1/UniConvertor (http://sk1project.org/) -->

<svg
   width="595.276pt"
   height="841.89pt"
   viewBox="0 0 595.276 841.89"
   fill-rule="evenodd"
   version="1.1"
   id="svg5"
   sodipodi:docname="PolyMecanum_Bac.svg"
   inkscape:version="1.3.2 (091e20e, 2023-11-25, custom)"
   xmlns:inkscape="http://www.inkscape.org/namespaces/inkscape"
   xmlns:sodipodi="http://sodipodi.sourceforge.net/DTD/sodipodi-0.dtd"
   xmlns="http://www.w3.org/2000/svg"
   xmlns:svg="http://www.w3.org/2000/svg">
  <defs
     id="defs5" />
  <sodipodi:namedview
     id="namedview5"
     pagecolor="#505050"
     bordercolor="#eeeeee"
     borderopacity="1"
     inkscape:showpageshadow="0"
     inkscape:pageopacity="0"
     inkscape:pagecheckerboard="0"
     inkscape:deskcolor="#505050"
     inkscape:document-units="pt"
     inkscape:zoom="0.9789081"
     inkscape:cx="374.90751"
     inkscape:cy="768.71363"
     inkscape:window-width="1920"
     inkscape:window-height="991"
     inkscape:window-x="-9"
     inkscape:window-y="-9"
     inkscape:window-maximized="1"
     inkscape:current-layer="svg5" />
  <g
     id="g5"
     transform="translate(32.94487,-25.283272)">
    <path
       style="fill:none;stroke:#000000;stroke-width:0.72"
       d="m 24.9846,816.905 h 16.9982 v 2.585 h 19.5741 v -2.585 h 19.5828 v 2.585 h 19.5823 v -2.585 h 19.583 v 2.585 h 19.574 v -2.585 h 19.583 v 2.585 h 19.583 v -2.585 h 19.574 v 2.585 h 19.583 v -2.585 H 235.2 v -20.143 h 2.585 V 776.611 H 235.2 v -20.143 h 2.585 V 736.317 H 235.2 v -20.143 h 2.585 V 696.023 H 235.2 V 675.88 h 2.585 V 655.729 H 235.2 v -20.143 h 2.585 V 615.434 H 235.2 v -20.142 h 2.585 V 575.14 H 235.2 v -20.143 h -16.998 v -2.584 h -19.583 v 2.584 h -19.574 v -2.584 h -19.583 v 2.584 h -19.583 v -2.584 h -19.574 v 2.584 h -19.583 v -2.584 H 81.1397 v 2.584 H 61.5569 v -2.584 H 41.9828 v 2.584 H 24.9846 V 575.14 H 22.4 v 20.152 h 2.5846 v 20.142 H 22.4 v 20.152 h 2.5846 v 20.143 H 22.4 v 20.151 h 2.5846 v 20.143 H 22.4 v 20.151 h 2.5846 v 20.143 H 22.4 v 20.151 h 2.5846 v 20.143 H 22.4 v 20.151 h 2.5846 v 20.143"
       id="path1" />
    <path
       style="fill:none;stroke:#000000;stroke-width:0.72"
       d="M 24.9846,841.89 H 235.2 h 2.585 v -6.608 H 235.2 v -6.6 h 2.585 v -6.608 h -19.583 v 2.585 h -19.583 v -2.585 h -19.574 v 2.585 h -19.583 v -2.585 h -19.583 v 2.585 h -19.574 v -2.585 h -19.583 v 2.585 H 81.1397 v -2.585 H 61.5569 v 2.585 H 41.9828 v -2.585 H 22.4 v 6.608 h 2.5846 v 6.6 H 22.4 v 6.608 h 2.5846"
       id="path2" />
    <path
       style="fill:none;stroke:#000000;stroke-width:0.72"
       d="M 24.9846,530.013 H 235.2 h 2.585 v 6.608 H 235.2 v 6.599 h 2.585 v 6.608 h -19.583 v -2.584 h -19.583 v 2.584 h -19.574 v -2.584 h -19.583 v 2.584 h -19.583 v -2.584 h -19.574 v 2.584 h -19.583 v -2.584 H 81.1397 v 2.584 H 61.5569 v -2.584 H 41.9828 v 2.584 H 22.4 v -6.608 h 2.5846 v -6.599 H 22.4 v -6.608 h 2.5846"
       id="path3" />
    <path
       style="fill:none;stroke:#000000;stroke-width:0.72"
       d="M 0,816.905 V 554.997 h 6.608 v -2.584 h 6.5994 v 2.584 h 6.608 v 20.143 h -2.5846 v 20.152 h 2.5846 v 20.142 h -2.5846 v 20.152 h 2.5846 v 20.143 h -2.5846 v 20.151 h 2.5846 v 20.143 h -2.5846 v 20.151 h 2.5846 v 20.143 h -2.5846 v 20.151 h 2.5846 v 20.143 h -2.5846 v 20.151 h 2.5846 v 20.143 h -6.608 v 2.585 H 6.608 v -2.585 H 0"
       id="path4" />
    <path
       style="fill:none;stroke:#000000;stroke-width:0.72"
       d="M 260.185,816.905 V 554.997 h -6.608 v -2.584 h -6.6 v 2.584 h -6.608 v 20.143 h 2.585 v 20.152 h -2.585 v 20.142 h 2.585 v 20.152 h -2.585 v 20.143 h 2.585 v 20.151 h -2.585 v 20.143 h 2.585 v 20.151 h -2.585 v 20.143 h 2.585 v 20.151 h -2.585 v 20.143 h 2.585 v 20.151 h -2.585 v 20.143 h 6.608 v 2.585 h 6.6 v -2.585 h 6.608"
       id="path5" />
  </g>
</svg>
