0
SECTION
2
HEADER
9
$EXTMIN
10
0
20
0
9
$EXTMAX
10
750
20
975
0
ENDSEC
0
SECTION
2
TABLES
0
TABLE
2
VPORT
70
1
0
VPORT
2
*ACTIVE
70
0
10
0
20
0
11
1
21
1
12
0
22
0
13
0
23
0
14
1
24
1
15
0
25
0
16
0
26
0
36
1
17
0
27
0
37
0
40
300
41
2.12
42
50
43
0
44
0
50
0
51
0
71
0
72
100
73
1
74
1
75
0
76
0
77
0
78
0
0
ENDTAB
0
ENDSEC
0
SECTION
2
ENTITIES
0
POLYLINE
8
1
66
1
70
0
0
VERTEX
8
1
10
29.00
20
29.00
0
VERTEX
8
1
10
48.73
20
29.00
0
VERTEX
8
1
10
48.73
20
26.00
0
VERTEX
8
1
10
71.45
20
26.00
0
VERTEX
8
1
10
71.45
20
29.00
0
VERTEX
8
1
10
94.18
20
29.00
0
VERTEX
8
1
10
94.18
20
26.00
0
VERTEX
8
1
10
116.91
20
26.00
0
VERTEX
8
1
10
116.91
20
29.00
0
VERTEX
8
1
10
139.64
20
29.00
0
VERTEX
8
1
10
139.64
20
26.00
0
VERTEX
8
1
10
162.36
20
26.00
0
VERTEX
8
1
10
162.36
20
29.00
0
VERTEX
8
1
10
185.09
20
29.00
0
VERTEX
8
1
10
185.09
20
26.00
0
VERTEX
8
1
10
207.82
20
26.00
0
VERTEX
8
1
10
207.82
20
29.00
0
VERTEX
8
1
10
230.54
20
29.00
0
VERTEX
8
1
10
230.54
20
26.00
0
VERTEX
8
1
10
253.27
20
26.00
0
VERTEX
8
1
10
253.27
20
29.00
0
VERTEX
8
1
10
273.00
20
29.00
0
VERTEX
8
1
10
273.00
20
52.38
0
VERTEX
8
1
10
276.00
20
52.38
0
VERTEX
8
1
10
276.00
20
75.77
0
VERTEX
8
1
10
273.00
20
75.77
0
VERTEX
8
1
10
273.00
20
99.15
0
VERTEX
8
1
10
276.00
20
99.15
0
VERTEX
8
1
10
276.00
20
122.54
0
VERTEX
8
1
10
273.00
20
122.54
0
VERTEX
8
1
10
273.00
20
145.92
0
VERTEX
8
1
10
276.00
20
145.92
0
VERTEX
8
1
10
276.00
20
169.31
0
VERTEX
8
1
10
273.00
20
169.31
0
VERTEX
8
1
10
273.00
20
192.69
0
VERTEX
8
1
10
276.00
20
192.69
0
VERTEX
8
1
10
276.00
20
216.08
0
VERTEX
8
1
10
273.00
20
216.08
0
VERTEX
8
1
10
273.00
20
239.46
0
VERTEX
8
1
10
276.00
20
239.46
0
VERTEX
8
1
10
276.00
20
262.85
0
VERTEX
8
1
10
273.00
20
262.85
0
VERTEX
8
1
10
273.00
20
286.23
0
VERTEX
8
1
10
276.00
20
286.23
0
VERTEX
8
1
10
276.00
20
309.62
0
VERTEX
8
1
10
273.00
20
309.62
0
VERTEX
8
1
10
273.00
20
333.00
0
VERTEX
8
1
10
253.27
20
333.00
0
VERTEX
8
1
10
253.27
20
336.00
0
VERTEX
8
1
10
230.54
20
336.00
0
VERTEX
8
1
10
230.54
20
333.00
0
VERTEX
8
1
10
207.82
20
333.00
0
VERTEX
8
1
10
207.82
20
336.00
0
VERTEX
8
1
10
185.09
20
336.00
0
VERTEX
8
1
10
185.09
20
333.00
0
VERTEX
8
1
10
162.36
20
333.00
0
VERTEX
8
1
10
162.36
20
336.00
0
VERTEX
8
1
10
139.64
20
336.00
0
VERTEX
8
1
10
139.64
20
333.00
0
VERTEX
8
1
10
116.91
20
333.00
0
VERTEX
8
1
10
116.91
20
336.00
0
VERTEX
8
1
10
94.18
20
336.00
0
VERTEX
8
1
10
94.18
20
333.00
0
VERTEX
8
1
10
71.45
20
333.00
0
VERTEX
8
1
10
71.45
20
336.00
0
VERTEX
8
1
10
48.73
20
336.00
0
VERTEX
8
1
10
48.73
20
333.00
0
VERTEX
8
1
10
29.00
20
333.00
0
VERTEX
8
1
10
29.00
20
309.62
0
VERTEX
8
1
10
26.00
20
309.62
0
VERTEX
8
1
10
26.00
20
286.23
0
VERTEX
8
1
10
29.00
20
286.23
0
VERTEX
8
1
10
29.00
20
262.85
0
VERTEX
8
1
10
26.00
20
262.85
0
VERTEX
8
1
10
26.00
20
239.46
0
VERTEX
8
1
10
29.00
20
239.46
0
VERTEX
8
1
10
29.00
20
216.08
0
VERTEX
8
1
10
26.00
20
216.08
0
VERTEX
8
1
10
26.00
20
192.69
0
VERTEX
8
1
10
29.00
20
192.69
0
VERTEX
8
1
10
29.00
20
169.31
0
VERTEX
8
1
10
26.00
20
169.31
0
VERTEX
8
1
10
26.00
20
145.92
0
VERTEX
8
1
10
29.00
20
145.92
0
VERTEX
8
1
10
29.00
20
122.54
0
VERTEX
8
1
10
26.00
20
122.54
0
VERTEX
8
1
10
26.00
20
99.15
0
VERTEX
8
1
10
29.00
20
99.15
0
VERTEX
8
1
10
29.00
20
75.77
0
VERTEX
8
1
10
26.00
20
75.77
0
VERTEX
8
1
10
26.00
20
52.38
0
VERTEX
8
1
10
29.00
20
52.38
0
VERTEX
8
1
10
29.00
20
29.00
0
SEQEND
0
POLYLINE
8
1
66
1
70
0
0
VERTEX
8
1
10
29.00
20
0.00
0
VERTEX
8
1
10
273.00
20
0.00
0
VERTEX
8
1
10
276.00
20
0.00
0
VERTEX
8
1
10
276.00
20
7.67
0
VERTEX
8
1
10
273.00
20
7.67
0
VERTEX
8
1
10
273.00
20
15.33
0
VERTEX
8
1
10
276.00
20
15.33
0
VERTEX
8
1
10
276.00
20
23.00
0
VERTEX
8
1
10
253.27
20
23.00
0
VERTEX
8
1
10
253.27
20
20.00
0
VERTEX
8
1
10
230.54
20
20.00
0
VERTEX
8
1
10
230.54
20
23.00
0
VERTEX
8
1
10
207.82
20
23.00
0
VERTEX
8
1
10
207.82
20
20.00
0
VERTEX
8
1
10
185.09
20
20.00
0
VERTEX
8
1
10
185.09
20
23.00
0
VERTEX
8
1
10
162.36
20
23.00
0
VERTEX
8
1
10
162.36
20
20.00
0
VERTEX
8
1
10
139.64
20
20.00
0
VERTEX
8
1
10
139.64
20
23.00
0
VERTEX
8
1
10
116.91
20
23.00
0
VERTEX
8
1
10
116.91
20
20.00
0
VERTEX
8
1
10
94.18
20
20.00
0
VERTEX
8
1
10
94.18
20
23.00
0
VERTEX
8
1
10
71.45
20
23.00
0
VERTEX
8
1
10
71.45
20
20.00
0
VERTEX
8
1
10
48.73
20
20.00
0
VERTEX
8
1
10
48.73
20
23.00
0
VERTEX
8
1
10
26.00
20
23.00
0
VERTEX
8
1
10
26.00
20
15.33
0
VERTEX
8
1
10
29.00
20
15.33
0
VERTEX
8
1
10
29.00
20
7.67
0
VERTEX
8
1
10
26.00
20
7.67
0
VERTEX
8
1
10
26.00
20
0.00
0
VERTEX
8
1
10
29.00
20
0.00
0
SEQEND
0
POLYLINE
8
1
66
1
70
0
0
VERTEX
8
1
10
29.00
20
362.00
0
VERTEX
8
1
10
273.00
20
362.00
0
VERTEX
8
1
10
276.00
20
362.00
0
VERTEX
8
1
10
276.00
20
354.33
0
VERTEX
8
1
10
273.00
20
354.33
0
VERTEX
8
1
10
273.00
20
346.67
0
VERTEX
8
1
10
276.00
20
346.67
0
VERTEX
8
1
10
276.00
20
339.00
0
VERTEX
8
1
10
253.27
20
339.00
0
VERTEX
8
1
10
253.27
20
342.00
0
VERTEX
8
1
10
230.54
20
342.00
0
VERTEX
8
1
10
230.54
20
339.00
0
VERTEX
8
1
10
207.82
20
339.00
0
VERTEX
8
1
10
207.82
20
342.00
0
VERTEX
8
1
10
185.09
20
342.00
0
VERTEX
8
1
10
185.09
20
339.00
0
VERTEX
8
1
10
162.36
20
339.00
0
VERTEX
8
1
10
162.36
20
342.00
0
VERTEX
8
1
10
139.64
20
342.00
0
VERTEX
8
1
10
139.64
20
339.00
0
VERTEX
8
1
10
116.91
20
339.00
0
VERTEX
8
1
10
116.91
20
342.00
0
VERTEX
8
1
10
94.18
20
342.00
0
VERTEX
8
1
10
94.18
20
339.00
0
VERTEX
8
1
10
71.45
20
339.00
0
VERTEX
8
1
10
71.45
20
342.00
0
VERTEX
8
1
10
48.73
20
342.00
0
VERTEX
8
1
10
48.73
20
339.00
0
VERTEX
8
1
10
26.00
20
339.00
0
VERTEX
8
1
10
26.00
20
346.67
0
VERTEX
8
1
10
29.00
20
346.67
0
VERTEX
8
1
10
29.00
20
354.33
0
VERTEX
8
1
10
26.00
20
354.33
0
VERTEX
8
1
10
26.00
20
362.00
0
VERTEX
8
1
10
29.00
20
362.00
0
SEQEND
0
POLYLINE
8
1
66
1
70
0
0
VERTEX
8
1
10
0.00
20
29.00
0
VERTEX
8
1
10
0.00
20
333.00
0
VERTEX
8
1
10
7.67
20
333.00
0
VERTEX
8
1
10
7.67
20
336.00
0
VERTEX
8
1
10
15.33
20
336.00
0
VERTEX
8
1
10
15.33
20
333.00
0
VERTEX
8
1
10
23.00
20
333.00
0
VERTEX
8
1
10
23.00
20
309.62
0
VERTEX
8
1
10
20.00
20
309.62
0
VERTEX
8
1
10
20.00
20
286.23
0
VERTEX
8
1
10
23.00
20
286.23
0
VERTEX
8
1
10
23.00
20
262.85
0
VERTEX
8
1
10
20.00
20
262.85
0
VERTEX
8
1
10
20.00
20
239.46
0
VERTEX
8
1
10
23.00
20
239.46
0
VERTEX
8
1
10
23.00
20
216.08
0
VERTEX
8
1
10
20.00
20
216.08
0
VERTEX
8
1
10
20.00
20
192.69
0
VERTEX
8
1
10
23.00
20
192.69
0
VERTEX
8
1
10
23.00
20
169.31
0
VERTEX
8
1
10
20.00
20
169.31
0
VERTEX
8
1
10
20.00
20
145.92
0
VERTEX
8
1
10
23.00
20
145.92
0
VERTEX
8
1
10
23.00
20
122.54
0
VERTEX
8
1
10
20.00
20
122.54
0
VERTEX
8
1
10
20.00
20
99.15
0
VERTEX
8
1
10
23.00
20
99.15
0
VERTEX
8
1
10
23.00
20
75.77
0
VERTEX
8
1
10
20.00
20
75.77
0
VERTEX
8
1
10
20.00
20
52.38
0
VERTEX
8
1
10
23.00
20
52.38
0
VERTEX
8
1
10
23.00
20
29.00
0
VERTEX
8
1
10
15.33
20
29.00
0
VERTEX
8
1
10
15.33
20
26.00
0
VERTEX
8
1
10
7.67
20
26.00
0
VERTEX
8
1
10
7.67
20
29.00
0
VERTEX
8
1
10
0.00
20
29.00
0
SEQEND
0
POLYLINE
8
1
66
1
70
0
0
VERTEX
8
1
10
302.00
20
29.00
0
VERTEX
8
1
10
302.00
20
333.00
0
VERTEX
8
1
10
294.33
20
333.00
0
VERTEX
8
1
10
294.33
20
336.00
0
VERTEX
8
1
10
286.67
20
336.00
0
VERTEX
8
1
10
286.67
20
333.00
0
VERTEX
8
1
10
279.00
20
333.00
0
VERTEX
8
1
10
279.00
20
309.62
0
VERTEX
8
1
10
282.00
20
309.62
0
VERTEX
8
1
10
282.00
20
286.23
0
VERTEX
8
1
10
279.00
20
286.23
0
VERTEX
8
1
10
279.00
20
262.85
0
VERTEX
8
1
10
282.00
20
262.85
0
VERTEX
8
1
10
282.00
20
239.46
0
VERTEX
8
1
10
279.00
20
239.46
0
VERTEX
8
1
10
279.00
20
216.08
0
VERTEX
8
1
10
282.00
20
216.08
0
VERTEX
8
1
10
282.00
20
192.69
0
VERTEX
8
1
10
279.00
20
192.69
0
VERTEX
8
1
10
279.00
20
169.31
0
VERTEX
8
1
10
282.00
20
169.31
0
VERTEX
8
1
10
282.00
20
145.92
0
VERTEX
8
1
10
279.00
20
145.92
0
VERTEX
8
1
10
279.00
20
122.54
0
VERTEX
8
1
10
282.00
20
122.54
0
VERTEX
8
1
10
282.00
20
99.15
0
VERTEX
8
1
10
279.00
20
99.15
0
VERTEX
8
1
10
279.00
20
75.77
0
VERTEX
8
1
10
282.00
20
75.77
0
VERTEX
8
1
10
282.00
20
52.38
0
VERTEX
8
1
10
279.00
20
52.38
0
VERTEX
8
1
10
279.00
20
29.00
0
VERTEX
8
1
10
286.67
20
29.00
0
VERTEX
8
1
10
286.67
20
26.00
0
VERTEX
8
1
10
294.33
20
26.00
0
VERTEX
8
1
10
294.33
20
29.00
0
VERTEX
8
1
10
302.00
20
29.00
0
SEQEND
0
ENDSEC
0
EOF
